<svg width="50" height="50" viewBox="0 0 50 50" fill="none" xmlns="http://www.w3.org/2000/svg">
<path d="M31.2497 12.4998H18.7497C18.1971 12.4998 17.6672 12.7193 17.2765 13.11C16.8858 13.5007 16.6663 14.0306 16.6663 14.5832V22.9165C16.6663 23.469 16.8858 23.9989 17.2765 24.3896C17.6672 24.7803 18.1971 24.9998 18.7497 24.9998H31.2497C31.8022 24.9998 32.3321 24.7803 32.7228 24.3896C33.1135 23.9989 33.333 23.469 33.333 22.9165V14.5832C33.333 14.0306 33.1135 13.5007 32.7228 13.11C32.3321 12.7193 31.8022 12.4998 31.2497 12.4998ZM29.1663 20.8332H20.833V16.6665H29.1663V20.8332ZM35.4163 4.1665H10.4163C9.86381 4.1665 9.3339 4.386 8.9432 4.7767C8.5525 5.1674 8.33301 5.6973 8.33301 6.24984V43.7498C8.33301 44.3024 8.5525 44.8323 8.9432 45.223C9.3339 45.6137 9.86381 45.8332 10.4163 45.8332H35.4163C37.0739 45.8332 38.6637 45.1747 39.8358 44.0026C41.0079 42.8305 41.6663 41.2408 41.6663 39.5832V10.4165C41.6663 8.7589 41.0079 7.16919 39.8358 5.99709C38.6637 4.82498 37.0739 4.1665 35.4163 4.1665ZM37.4997 39.5832C37.4997 40.1357 37.2802 40.6656 36.8895 41.0563C36.4988 41.447 35.9689 41.6665 35.4163 41.6665H12.4997V8.33317H35.4163C35.9689 8.33317 36.4988 8.55266 36.8895 8.94337C37.2802 9.33407 37.4997 9.86397 37.4997 10.4165V39.5832Z" fill="#003DA5"/>
</svg>
