<svg width="21" height="20" viewBox="0 0 21 20" fill="none" xmlns="http://www.w3.org/2000/svg">
<path d="M9.26967 19.6049L0.370807 10.9136C0.235976 10.7819 0.140245 10.6392 0.0836162 10.4856C0.0269871 10.3319 -0.000877808 10.1673 2.10676e-05 9.99174C2.10676e-05 9.81616 0.0283359 9.65155 0.0849651 9.49792C0.141594 9.34428 0.236875 9.20162 0.370807 9.06993L9.26967 0.378553C9.51686 0.137125 9.82608 0.0111447 10.1973 0.000609745C10.5685 -0.00992526 10.8885 0.116055 11.1573 0.378553C11.427 0.61998 11.5676 0.921984 11.5793 1.28456C11.591 1.64714 11.4616 1.95968 11.191 2.22218L4.58429 8.67487H19.6517C20.0337 8.67487 20.3542 8.80129 20.613 9.05413C20.8719 9.30697 21.0009 9.61951 21 9.99174C21 10.3649 20.871 10.6778 20.613 10.9307C20.3551 11.1835 20.0346 11.3095 19.6517 11.3086H4.58429L11.191 17.7613C11.4382 18.0027 11.5676 18.31 11.5793 18.6831C11.591 19.0562 11.4616 19.3635 11.191 19.6049C10.9438 19.8683 10.6292 20 10.2472 20C9.86518 20 9.53933 19.8683 9.26967 19.6049Z" fill="black"/>
</svg>
