<svg width="256" height="256" viewBox="0 0 256 256" fill="none" xmlns="http://www.w3.org/2000/svg">
<path d="M221.8 175.94C216.25 166.38 208 139.33 208 104C208 82.7827 199.572 62.4344 184.569 47.4315C169.566 32.4285 149.217 24 128 24C106.783 24 86.4345 32.4285 71.4316 47.4315C56.4287 62.4344 48.0001 82.7827 48.0001 104C48.0001 139.34 39.7401 166.38 34.1901 175.94C32.7728 178.37 32.0215 181.132 32.0118 183.945C32.0022 186.759 32.7345 189.525 34.1351 191.965C35.5357 194.405 37.5549 196.433 39.9892 197.843C42.4234 199.254 45.1866 199.998 48.0001 200H88.8101C90.6558 209.032 95.5644 217.148 102.705 222.978C109.847 228.807 118.782 231.991 128 231.991C137.218 231.991 146.154 228.807 153.295 222.978C160.436 217.148 165.344 209.032 167.19 200H208C210.813 199.996 213.575 199.251 216.008 197.84C218.44 196.428 220.458 194.4 221.858 191.961C223.257 189.521 223.989 186.755 223.978 183.943C223.968 181.13 223.217 178.37 221.8 175.94ZM128 216C123.038 215.998 118.199 214.459 114.148 211.594C110.097 208.728 107.034 204.678 105.38 200H150.62C148.966 204.678 145.903 208.728 141.852 211.594C137.801 214.459 132.962 215.998 128 216ZM48.0001 184C55.7001 170.76 64.0001 140.08 64.0001 104C64.0001 87.0261 70.743 70.7475 82.7453 58.7452C94.7476 46.7428 111.026 40 128 40C144.974 40 161.253 46.7428 173.255 58.7452C185.257 70.7475 192 87.0261 192 104C192 140.05 200.28 170.73 208 184H48.0001Z" fill="black"/>
</svg>
