<svg width="35" height="35" viewBox="0 0 35 35" fill="none" xmlns="http://www.w3.org/2000/svg">
<path d="M17.4999 30.6251C15.9201 30.6251 14.4554 30.2362 13.106 29.4585C11.7565 28.6807 10.6934 27.6112 9.91659 26.2501H7.25513C6.84193 26.2501 6.50165 26.1101 6.23429 25.8301C5.96693 25.5501 5.83325 25.204 5.83325 24.7918C5.83325 24.3786 5.97325 24.032 6.25325 23.752C6.53325 23.472 6.87936 23.3325 7.29159 23.3335H8.89575C8.82283 22.8473 8.78006 22.3612 8.76742 21.8751C8.75478 21.389 8.74895 20.9029 8.74992 20.4168H7.25513C6.84193 20.4168 6.50165 20.2768 6.23429 19.9968C5.96693 19.7168 5.83325 19.3707 5.83325 18.9585C5.83325 18.5453 5.97325 18.1987 6.25325 17.9187C6.53325 17.6387 6.87936 17.4992 7.29159 17.5001H8.74992C8.74992 17.014 8.75624 16.5279 8.76888 16.0418C8.78152 15.5557 8.82381 15.0696 8.89575 14.5835H7.25513C6.84193 14.5835 6.50165 14.4435 6.23429 14.1635C5.96693 13.8835 5.83325 13.5373 5.83325 13.1251C5.83325 12.7119 5.97325 12.3653 6.25325 12.0853C6.53325 11.8053 6.87936 11.6658 7.29159 11.6668H9.91659C10.2569 11.1078 10.6399 10.5852 11.0658 10.0991C11.4916 9.61297 11.9835 9.18763 12.5416 8.82304L11.1926 7.43763C10.9253 7.14596 10.7974 6.79936 10.8091 6.39783C10.8208 5.99631 10.9608 5.66235 11.2291 5.39596C11.4964 5.1286 11.8367 4.99492 12.2499 4.99492C12.6631 4.99492 13.0034 5.1286 13.2708 5.39596L15.3853 7.51054C16.0659 7.29179 16.7586 7.18242 17.4635 7.18242C18.1683 7.18242 18.861 7.29179 19.5416 7.51054L21.7291 5.3595C22.0208 5.09214 22.3673 4.96478 22.7689 4.97742C23.1704 4.99006 23.5044 5.12957 23.7708 5.39596C24.0381 5.66332 24.1718 6.0036 24.1718 6.41679C24.1718 6.82999 24.0381 7.17027 23.7708 7.43763L22.3853 8.82304C22.9444 9.18763 23.4489 9.60714 23.8991 10.0816C24.3492 10.556 24.7439 11.0844 25.0833 11.6668H27.7447C28.1579 11.6668 28.4982 11.8068 28.7655 12.0868C29.0329 12.3668 29.1666 12.7129 29.1666 13.1251C29.1666 13.5383 29.0266 13.8849 28.7466 14.1649C28.4666 14.4449 28.1205 14.5844 27.7083 14.5835H26.1041C26.177 15.0696 26.2198 15.5557 26.2324 16.0418C26.2451 16.5279 26.2509 17.014 26.2499 17.5001H27.7447C28.1579 17.5001 28.4982 17.6401 28.7655 17.9201C29.0329 18.2001 29.1666 18.5462 29.1666 18.9585C29.1666 19.3717 29.0266 19.7183 28.7466 19.9983C28.4666 20.2783 28.1205 20.4178 27.7083 20.4168H26.2499C26.2499 20.9029 26.2436 21.389 26.231 21.8751C26.2183 22.3612 26.176 22.8473 26.1041 23.3335H27.7447C28.1579 23.3335 28.4982 23.4735 28.7655 23.7535C29.0329 24.0335 29.1666 24.3796 29.1666 24.7918C29.1666 25.205 29.0266 25.5516 28.7466 25.8316C28.4666 26.1116 28.1205 26.2511 27.7083 26.2501H25.0833C24.3055 27.6112 23.2419 28.6807 21.8924 29.4585C20.543 30.2362 19.0788 30.6251 17.4999 30.6251ZM17.4999 27.7085C19.1041 27.7085 20.4773 27.1373 21.6197 25.9949C22.7621 24.8526 23.3333 23.4793 23.3333 21.8751V16.0418C23.3333 14.4376 22.7621 13.0644 21.6197 11.922C20.4773 10.7796 19.1041 10.2085 17.4999 10.2085C15.8958 10.2085 14.5225 10.7796 13.3801 11.922C12.2378 13.0644 11.6666 14.4376 11.6666 16.0418V21.8751C11.6666 23.4793 12.2378 24.8526 13.3801 25.9949C14.5225 27.1373 15.8958 27.7085 17.4999 27.7085ZM16.0416 23.3335H18.9947C19.4079 23.3335 19.7482 23.1935 20.0155 22.9135C20.2829 22.6335 20.4166 22.2873 20.4166 21.8751C20.4166 21.4619 20.2766 21.1153 19.9966 20.8353C19.7166 20.5553 19.3705 20.4158 18.9583 20.4168H16.0051C15.5919 20.4168 15.2517 20.5568 14.9843 20.8368C14.7169 21.1168 14.5833 21.4629 14.5833 21.8751C14.5833 22.2883 14.7233 22.6349 15.0033 22.9149C15.2833 23.1949 15.6294 23.3344 16.0416 23.3335ZM16.0416 17.5001H18.9947C19.4079 17.5001 19.7482 17.3601 20.0155 17.0801C20.2829 16.8001 20.4166 16.454 20.4166 16.0418C20.4166 15.6286 20.2766 15.282 19.9966 15.002C19.7166 14.722 19.3705 14.5825 18.9583 14.5835H16.0051C15.5919 14.5835 15.2517 14.7235 14.9843 15.0035C14.7169 15.2835 14.5833 15.6296 14.5833 16.0418C14.5833 16.455 14.7233 16.8016 15.0033 17.0816C15.2833 17.3616 15.6294 17.5011 16.0416 17.5001Z" fill="black"/>
</svg>
