<svg width="50" height="50" viewBox="0 0 50 50" fill="none" xmlns="http://www.w3.org/2000/svg">
<path d="M41.6667 37.5002C43.9583 37.5002 45.8125 35.6252 45.8125 33.3335L45.8333 12.5002C45.8333 10.2085 43.9583 8.3335 41.6667 8.3335H8.33333C6.04167 8.3335 4.16667 10.2085 4.16667 12.5002V33.3335C4.16667 35.6252 6.04167 37.5002 8.33333 37.5002H2.08333C0.9375 37.5002 0 38.4377 0 39.5835C0 40.7293 0.9375 41.6668 2.08333 41.6668H47.9167C49.0625 41.6668 50 40.7293 50 39.5835C50 38.4377 49.0625 37.5002 47.9167 37.5002H41.6667ZM10.4167 12.5002H39.5833C40.7292 12.5002 41.6667 13.4377 41.6667 14.5835V31.2502C41.6667 32.396 40.7292 33.3335 39.5833 33.3335H10.4167C9.27083 33.3335 8.33333 32.396 8.33333 31.2502V14.5835C8.33333 13.4377 9.27083 12.5002 10.4167 12.5002Z" fill="#003DA5"/>
</svg>
