<svg width="50" height="50" viewBox="0 0 50 50" fill="none" xmlns="http://www.w3.org/2000/svg">
<path d="M37.5003 6.25C38.0106 6.25007 38.5031 6.43741 38.8844 6.77649C39.2658 7.11557 39.5094 7.58281 39.5691 8.08958L39.5837 8.33333V41.6667C39.5831 42.1977 39.3797 42.7084 39.0152 43.0945C38.6507 43.4806 38.1525 43.713 37.6224 43.7441C37.0923 43.7752 36.5704 43.6028 36.1632 43.262C35.756 42.9211 35.4943 42.4377 35.4316 41.9104L35.417 41.6667V31.25H33.3337C32.8234 31.2499 32.3309 31.0626 31.9495 30.7235C31.5682 30.3844 31.3246 29.9172 31.2649 29.4104L31.2503 29.1667V16.6667C31.2503 12.0625 34.3753 6.25 37.5003 6.25ZM25.0003 6.25C25.5106 6.25007 26.0031 6.43741 26.3844 6.77649C26.7658 7.11557 27.0094 7.58281 27.0691 8.08958L27.0837 8.33333V18.75C27.0834 20.5976 26.4694 22.3929 25.3382 23.8537C24.2069 25.3145 22.6225 26.3582 20.8337 26.8208V41.6667C20.8331 42.1977 20.6297 42.7084 20.2652 43.0945C19.9007 43.4806 19.4025 43.713 18.8724 43.7441C18.3423 43.7752 17.8204 43.6028 17.4132 43.262C17.006 42.9211 16.7443 42.4377 16.6816 41.9104L16.667 41.6667V26.8208C14.9492 26.3767 13.4178 25.3962 12.2957 24.0219C11.1735 22.6476 10.519 20.9511 10.4274 19.1792L10.417 18.75V8.33333C10.4176 7.80233 10.6209 7.2916 10.9854 6.90548C11.3499 6.51937 11.8481 6.28701 12.3782 6.25589C12.9083 6.22477 13.4303 6.39724 13.8375 6.73805C14.2447 7.07886 14.5064 7.5623 14.5691 8.08958L14.5837 8.33333V18.75C14.5837 19.4814 14.7762 20.1999 15.1419 20.8333C15.5076 21.4667 16.0336 21.9926 16.667 22.3583V8.33333C16.6676 7.80233 16.8709 7.2916 17.2354 6.90548C17.5999 6.51937 18.0981 6.28701 18.6282 6.25589C19.1583 6.22477 19.6803 6.39724 20.0875 6.73805C20.4947 7.07886 20.7564 7.5623 20.8191 8.08958L20.8337 8.33333L20.8357 22.3583C21.4171 22.0223 21.9087 21.5507 22.2685 20.9837C22.6283 20.4168 22.8458 19.7712 22.9024 19.1021L22.917 18.75V8.33333C22.917 7.7808 23.1365 7.25089 23.5272 6.86019C23.9179 6.46949 24.4478 6.25 25.0003 6.25Z" fill="#003DA5"/>
</svg>
