<svg width="35" height="35" viewBox="0 0 35 35" fill="none" xmlns="http://www.w3.org/2000/svg">
<path d="M12.9166 21.0833L27.1249 6.875M12.9166 21.0833L17.4374 30.125C17.4941 30.2487 17.5851 30.3535 17.6996 30.4269C17.814 30.5004 17.9472 30.5395 18.0832 30.5395C18.2193 30.5395 18.3524 30.5004 18.4669 30.4269C18.5814 30.3535 18.6724 30.2487 18.7291 30.125L27.1249 6.875M12.9166 21.0833L3.87491 16.5625C3.75124 16.5058 3.64645 16.4148 3.57298 16.3004C3.49951 16.1859 3.46045 16.0527 3.46045 15.9167C3.46045 15.7806 3.49951 15.6475 3.57298 15.533C3.64645 15.4185 3.75124 15.3275 3.87491 15.2708L27.1249 6.875" stroke="black" stroke-width="2" stroke-linecap="round" stroke-linejoin="round"/>
</svg>
