<svg width="33" height="33" viewBox="0 0 33 33" fill="none" xmlns="http://www.w3.org/2000/svg">
<path d="M10.0183 13.5535C9.7057 13.5535 9.40593 13.6777 9.1849 13.8987C8.96388 14.1197 8.8397 14.4195 8.8397 14.7321C8.8397 15.0447 8.96388 15.3444 9.1849 15.5654C9.40593 15.7865 9.7057 15.9106 10.0183 15.9106C10.3309 15.9106 10.6306 15.7865 10.8517 15.5654C11.0727 15.3444 11.1968 15.0447 11.1968 14.7321C11.1968 14.4195 11.0727 14.1197 10.8517 13.8987C10.6306 13.6777 10.3309 13.5535 10.0183 13.5535ZM8.8397 22.9821C8.8397 22.6695 8.96388 22.3697 9.1849 22.1487C9.40593 21.9277 9.7057 21.8035 10.0183 21.8035C10.3309 21.8035 10.6306 21.9277 10.8517 22.1487C11.0727 22.3697 11.1968 22.6695 11.1968 22.9821C11.1968 23.2947 11.0727 23.5944 10.8517 23.8155C10.6306 24.0365 10.3309 24.1606 10.0183 24.1606C9.7057 24.1606 9.40593 24.0365 9.1849 23.8155C8.96388 23.5944 8.8397 23.2947 8.8397 22.9821ZM3.53613 7.95529C3.53613 6.78313 4.00177 5.65897 4.83062 4.83013C5.65946 4.00128 6.78361 3.53564 7.95578 3.53564H25.0451C26.2172 3.53564 27.3414 4.00128 28.1702 4.83013C28.9991 5.65897 29.4647 6.78313 29.4647 7.95529V25.0446C29.4647 26.2167 28.9991 27.3409 28.1702 28.1697C27.3414 28.9986 26.2172 29.4642 25.0451 29.4642H7.95578C6.78361 29.4642 5.65946 28.9986 4.83062 28.1697C4.00177 27.3409 3.53613 26.2167 3.53613 25.0446V7.95529ZM7.07185 14.7321C7.07185 15.5135 7.38227 16.263 7.93484 16.8155C8.4874 17.3681 9.23683 17.6785 10.0183 17.6785C10.7997 17.6785 11.5492 17.3681 12.1017 16.8155C12.6543 16.263 12.9647 15.5135 12.9647 14.7321C12.9647 13.9506 12.6543 13.2012 12.1017 12.6486C11.5492 12.0961 10.7997 11.7856 10.0183 11.7856C9.23683 11.7856 8.4874 12.0961 7.93484 12.6486C7.38227 13.2012 7.07185 13.9506 7.07185 14.7321ZM10.0183 20.0356C9.23683 20.0356 8.4874 20.3461 7.93484 20.8986C7.38227 21.4512 7.07185 22.2006 7.07185 22.9821C7.07185 23.7635 7.38227 24.513 7.93484 25.0655C8.4874 25.6181 9.23683 25.9285 10.0183 25.9285C10.7997 25.9285 11.5492 25.6181 12.1017 25.0655C12.6543 24.513 12.9647 23.7635 12.9647 22.9821C12.9647 22.2006 12.6543 21.4512 12.1017 20.8986C11.5492 20.3461 10.7997 20.0356 10.0183 20.0356ZM15.3218 14.4374C15.3218 14.9254 15.7178 15.3214 16.2058 15.3214H25.0451C25.2795 15.3214 25.5043 15.2282 25.6701 15.0625C25.8359 14.8967 25.929 14.6719 25.929 14.4374C25.929 14.203 25.8359 13.9782 25.6701 13.8124C25.5043 13.6466 25.2795 13.5535 25.0451 13.5535H16.2058C15.9713 13.5535 15.7465 13.6466 15.5807 13.8124C15.415 13.9782 15.3218 14.203 15.3218 14.4374ZM16.2058 21.8035C15.9713 21.8035 15.7465 21.8966 15.5807 22.0624C15.415 22.2282 15.3218 22.453 15.3218 22.6874C15.3218 22.9219 15.415 23.1467 15.5807 23.3125C15.7465 23.4782 15.9713 23.5714 16.2058 23.5714H25.0451C25.2795 23.5714 25.5043 23.4782 25.6701 23.3125C25.8359 23.1467 25.929 22.9219 25.929 22.6874C25.929 22.453 25.8359 22.2282 25.6701 22.0624C25.5043 21.8966 25.2795 21.8035 25.0451 21.8035H16.2058ZM7.07185 7.95529C7.07185 8.44322 7.46785 8.83922 7.95578 8.83922H25.0451C25.2795 8.83922 25.5043 8.74609 25.6701 8.58032C25.8359 8.41455 25.929 8.18972 25.929 7.95529C25.929 7.72086 25.8359 7.49602 25.6701 7.33026C25.5043 7.16449 25.2795 7.07136 25.0451 7.07136H7.95578C7.72134 7.07136 7.49651 7.16449 7.33074 7.33026C7.16498 7.49602 7.07185 7.72086 7.07185 7.95529Z" fill="black"/>
</svg>
