<svg width="33" height="33" viewBox="0 0 33 33" fill="none" xmlns="http://www.w3.org/2000/svg">
<path d="M7.53571 15.1964C7.53571 14.415 7.84614 13.6656 8.3987 13.113C8.95127 12.5604 9.7007 12.25 10.4821 12.25C11.2636 12.25 12.013 12.5604 12.5656 13.113C13.1181 13.6656 13.4286 14.415 13.4286 15.1964C13.4286 15.9779 13.1181 16.7273 12.5656 17.2799C12.013 17.8324 11.2636 18.1429 10.4821 18.1429C9.7007 18.1429 8.95127 17.8324 8.3987 17.2799C7.84614 16.7273 7.53571 15.9779 7.53571 15.1964ZM10.4821 14.0179C10.1696 14.0179 9.86979 14.142 9.64877 14.3631C9.42774 14.5841 9.30357 14.8839 9.30357 15.1964C9.30357 15.509 9.42774 15.8088 9.64877 16.0298C9.86979 16.2508 10.1696 16.375 10.4821 16.375C10.7947 16.375 11.0945 16.2508 11.3155 16.0298C11.5365 15.8088 11.6607 15.509 11.6607 15.1964C11.6607 14.8839 11.5365 14.5841 11.3155 14.3631C11.0945 14.142 10.7947 14.0179 10.4821 14.0179ZM10.4821 20.5C9.7007 20.5 8.95127 20.8104 8.3987 21.363C7.84614 21.9156 7.53571 22.665 7.53571 23.4464C7.53571 24.2279 7.84614 24.9773 8.3987 25.5299C8.95127 26.0824 9.7007 26.3929 10.4821 26.3929C11.2636 26.3929 12.013 26.0824 12.5656 25.5299C13.1181 24.9773 13.4286 24.2279 13.4286 23.4464C13.4286 22.665 13.1181 21.9156 12.5656 21.363C12.013 20.8104 11.2636 20.5 10.4821 20.5ZM9.30357 23.4464C9.30357 23.1339 9.42774 22.8341 9.64877 22.6131C9.86979 22.392 10.1696 22.2679 10.4821 22.2679C10.7947 22.2679 11.0945 22.392 11.3155 22.6131C11.5365 22.8341 11.6607 23.1339 11.6607 23.4464C11.6607 23.759 11.5365 24.0588 11.3155 24.2798C11.0945 24.5008 10.7947 24.625 10.4821 24.625C10.1696 24.625 9.86979 24.5008 9.64877 24.2798C9.42774 24.0588 9.30357 23.759 9.30357 23.4464ZM15.7857 14.9018C15.7857 14.6674 15.8788 14.4425 16.0446 14.2768C16.2104 14.111 16.4352 14.0179 16.6696 14.0179H25.5089C25.7434 14.0179 25.9682 14.111 26.134 14.2768C26.2997 14.4425 26.3929 14.6674 26.3929 14.9018C26.3929 15.1362 26.2997 15.361 26.134 15.5268C25.9682 15.6926 25.7434 15.7857 25.5089 15.7857H16.6696C16.4352 15.7857 16.2104 15.6926 16.0446 15.5268C15.8788 15.361 15.7857 15.1362 15.7857 14.9018ZM16.6696 22.2679C16.4352 22.2679 16.2104 22.361 16.0446 22.5268C15.8788 22.6925 15.7857 22.9174 15.7857 23.1518C15.7857 23.3862 15.8788 23.6111 16.0446 23.7768C16.2104 23.9426 16.4352 24.0357 16.6696 24.0357H25.5089C25.7434 24.0357 25.9682 23.9426 26.134 23.7768C26.2997 23.6111 26.3929 23.3862 26.3929 23.1518C26.3929 22.9174 26.2997 22.6925 26.134 22.5268C25.9682 22.361 25.7434 22.2679 25.5089 22.2679H16.6696ZM7.53571 9.00893C7.53571 8.7745 7.62884 8.54967 7.79461 8.3839C7.96038 8.21813 8.18521 8.125 8.41964 8.125H25.5089C25.7434 8.125 25.9682 8.21813 26.134 8.3839C26.2997 8.54967 26.3929 8.7745 26.3929 9.00893C26.3929 9.24336 26.2997 9.46819 26.134 9.63396C25.9682 9.79973 25.7434 9.89286 25.5089 9.89286H8.41964C8.18521 9.89286 7.96038 9.79973 7.79461 9.63396C7.62884 9.46819 7.53571 9.24336 7.53571 9.00893ZM8.41964 4C7.24748 4 6.12333 4.46564 5.29448 5.29448C4.46564 6.12333 4 7.24748 4 8.41964V25.5089C4 26.6811 4.46564 27.8052 5.29448 28.6341C6.12333 29.4629 7.24748 29.9286 8.41964 29.9286H25.5089C26.6811 29.9286 27.8052 29.4629 28.6341 28.6341C29.4629 27.8052 29.9286 26.6811 29.9286 25.5089V8.41964C29.9286 7.24748 29.4629 6.12333 28.6341 5.29448C27.8052 4.46564 26.6811 4 25.5089 4H8.41964ZM5.76786 8.41964C5.76786 7.71635 6.04724 7.04185 6.54455 6.54455C7.04185 6.04724 7.71635 5.76786 8.41964 5.76786H25.5089C26.2122 5.76786 26.8867 6.04724 27.384 6.54455C27.8813 7.04185 28.1607 7.71635 28.1607 8.41964V25.5089C28.1607 26.2122 27.8813 26.8867 27.384 27.384C26.8867 27.8813 26.2122 28.1607 25.5089 28.1607H8.41964C7.71635 28.1607 7.04185 27.8813 6.54455 27.384C6.04724 26.8867 5.76786 26.2122 5.76786 25.5089V8.41964Z" fill="black"/>
</svg>
