<svg width="38" height="38" viewBox="0 0 38 38" fill="none" xmlns="http://www.w3.org/2000/svg">
<path d="M31.6663 30.0832V16.6248C31.6663 16.379 31.6091 16.1366 31.4992 15.9167C31.3893 15.6969 31.2297 15.5057 31.033 15.3582L19.9497 7.04567C19.6756 6.84012 19.3423 6.729 18.9997 6.729C18.6571 6.729 18.3237 6.84012 18.0497 7.04567L6.96634 15.3582C6.7697 15.5057 6.61009 15.6969 6.50016 15.9167C6.39024 16.1366 6.33301 16.379 6.33301 16.6248V30.0832C6.33301 30.5031 6.49982 30.9058 6.79676 31.2028C7.09369 31.4997 7.49642 31.6665 7.91634 31.6665H14.2497C14.6696 31.6665 15.0723 31.4997 15.3693 31.2028C15.6662 30.9058 15.833 30.5031 15.833 30.0832V25.3332C15.833 24.9132 15.9998 24.5105 16.2968 24.2136C16.5937 23.9167 16.9964 23.7498 17.4163 23.7498H20.583C21.0029 23.7498 21.4057 23.9167 21.7026 24.2136C21.9995 24.5105 22.1663 24.9132 22.1663 25.3332V30.0832C22.1663 30.5031 22.3332 30.9058 22.6301 31.2028C22.927 31.4997 23.3297 31.6665 23.7497 31.6665H30.083C30.5029 31.6665 30.9057 31.4997 31.2026 31.2028C31.4995 30.9058 31.6663 30.5031 31.6663 30.0832Z" stroke="black" stroke-width="2" stroke-linecap="round" stroke-linejoin="round"/>
</svg>
