<svg width="46" height="46" viewBox="0 0 46 46" fill="none" xmlns="http://www.w3.org/2000/svg">
<path d="M7.66634 5.75H9.58301C11.6032 5.75 13.2592 7.314 13.4068 9.29583L13.4163 9.58333V36.4167C13.4157 37.3833 13.0501 38.3141 12.3926 39.0227C11.7352 39.7313 10.8344 40.1656 9.87051 40.2385L9.58301 40.25H7.66634C6.69937 40.2499 5.76813 39.8845 5.0591 39.227C4.35006 38.5695 3.91556 37.6684 3.84259 36.7042L3.83301 36.4167V9.58333C3.83301 7.56317 5.39701 5.90717 7.37884 5.75958L7.66634 5.75ZM19.1663 5.75H21.083C23.1032 5.75 24.7592 7.314 24.9068 9.29583L24.9163 9.58333V36.4167C24.9157 37.3833 24.5501 38.3141 23.8926 39.0227C23.2352 39.7313 22.3344 40.1656 21.3705 40.2385L21.083 40.25H19.1663C18.1994 40.2499 17.2681 39.8845 16.5591 39.227C15.8501 38.5695 15.4156 37.6684 15.3426 36.7042L15.333 36.4167V9.58333C15.333 7.56317 16.897 5.90717 18.8788 5.75958L19.1663 5.75ZM32.5332 9.58333C34.1432 9.58333 35.6152 10.6011 36.1557 12.1632L36.2458 12.4641L42.0245 34.9753C42.2651 35.9119 42.1428 36.9049 41.6821 37.7551C41.2215 38.6053 40.4565 39.25 39.5405 39.56L39.2645 39.6424L37.4073 40.1177C36.475 40.3559 35.4873 40.235 34.6399 39.7792C33.7925 39.3234 33.1473 38.5659 32.8322 37.6567L32.7421 37.3597L26.9614 14.8484C26.7211 13.9113 26.8439 12.918 27.3053 12.0677C27.7667 11.2174 28.5326 10.573 29.4493 10.2638L29.7233 10.1813L31.5787 9.706C31.8904 9.62498 32.2111 9.58376 32.5332 9.58333ZM9.58301 8.625H7.66634C7.44214 8.6253 7.22512 8.70404 7.05288 8.84756C6.88065 8.99109 6.76406 9.19036 6.72334 9.41083L6.70801 9.58333V36.4167C6.70801 36.8843 7.04726 37.2792 7.49384 37.3597L7.66634 37.375H9.58301C10.0526 37.375 10.4455 37.0338 10.526 36.5892L10.5413 36.4167V9.58333C10.541 9.35913 10.4623 9.14211 10.3188 8.96987C10.1752 8.79764 9.97598 8.68106 9.75551 8.64033L9.58301 8.625ZM21.083 8.625H19.1663C18.9421 8.6253 18.7251 8.70404 18.5529 8.84756C18.3806 8.99109 18.2641 9.19036 18.2233 9.41083L18.208 9.58333V36.4167C18.208 36.8843 18.5473 37.2792 18.9938 37.3597L19.1663 37.375H21.083C21.5526 37.375 21.9455 37.0338 22.026 36.5892L22.0413 36.4167V9.58333C22.041 9.35913 21.9623 9.14211 21.8188 8.96987C21.6752 8.79764 21.476 8.68106 21.2555 8.64033L21.083 8.625ZM32.5351 12.4583L32.4143 12.466L32.2936 12.4909L30.4383 12.9643C30.2233 13.0183 30.0339 13.1453 29.9024 13.3237C29.7709 13.502 29.7056 13.7206 29.7176 13.9418L29.7463 14.1335L35.527 36.6447C35.58 36.8501 35.6997 37.0321 35.8672 37.1621C36.0347 37.2922 36.2407 37.363 36.4528 37.3635L36.5735 37.3577L36.6923 37.3347L38.5515 36.8556C38.7684 36.7997 38.9589 36.6696 39.0898 36.4878C39.2208 36.3061 39.2839 36.0843 39.2683 35.8608L39.2396 35.6922L33.4608 13.1771C33.4075 12.9719 33.2878 12.7901 33.1203 12.6601C32.9529 12.5301 32.7471 12.4591 32.5351 12.4583Z" fill="#003DA5"/>
</svg>
