<svg width="33" height="33" viewBox="0 0 33 33" fill="none" xmlns="http://www.w3.org/2000/svg">
<path d="M25.2506 6.37458C27.5225 8.64626 28.8219 11.7125 28.874 14.9249C28.9261 18.1373 27.7268 21.2441 25.5297 23.5882L25.2506 23.877L19.4165 29.7097C18.6762 30.4495 17.6824 30.8803 16.6364 30.9147C15.5904 30.9492 14.5704 30.5848 13.7831 29.8953L13.5851 29.7097L7.74958 23.8756C5.4288 21.5548 4.125 18.4072 4.125 15.1251C4.125 11.843 5.4288 8.69535 7.74958 6.37458C10.0704 4.0538 13.218 2.75 16.5001 2.75C19.7822 2.75 22.9298 4.0538 25.2506 6.37458ZM16.5001 11.0001C15.9584 11.0001 15.422 11.1068 14.9215 11.3141C14.421 11.5214 13.9663 11.8252 13.5833 12.2083C13.2002 12.5913 12.8964 13.046 12.6891 13.5465C12.4818 14.047 12.3751 14.5834 12.3751 15.1251C12.3751 15.6668 12.4818 16.2032 12.6891 16.7036C12.8964 17.2041 13.2002 17.6589 13.5833 18.0419C13.9663 18.4249 14.421 18.7288 14.9215 18.9361C15.422 19.1434 15.9584 19.2501 16.5001 19.2501C17.5941 19.2501 18.6433 18.8155 19.4169 18.0419C20.1905 17.2683 20.6251 16.2191 20.6251 15.1251C20.6251 14.0311 20.1905 12.9818 19.4169 12.2083C18.6433 11.4347 17.5941 11.0001 16.5001 11.0001Z" fill="black"/>
</svg>
