<svg width="33" height="33" viewBox="0 0 33 33" fill="none" xmlns="http://www.w3.org/2000/svg">
<path d="M11.875 14.9995C11.875 16.0935 12.3096 17.1427 13.0832 17.9163C13.8568 18.6899 14.906 19.1245 16 19.1245C17.094 19.1245 18.1432 18.6899 18.9168 17.9163C19.6904 17.1427 20.125 16.0935 20.125 14.9995C20.125 13.9055 19.6904 12.8563 18.9168 12.0827C18.1432 11.3091 17.094 10.8745 16 10.8745C14.906 10.8745 13.8568 11.3091 13.0832 12.0827C12.3096 12.8563 11.875 13.9055 11.875 14.9995Z" stroke="black" stroke-width="2" stroke-linecap="round" stroke-linejoin="round"/>
<path d="M23.7784 22.778L17.9443 28.6121C17.4286 29.1272 16.7296 29.4166 16.0007 29.4166C15.2718 29.4166 14.5728 29.1272 14.0571 28.6121L8.22163 22.778C6.68331 21.2396 5.63572 19.2796 5.21133 17.1458C4.78693 15.012 5.0048 12.8003 5.83738 10.7904C6.66996 8.7804 8.07986 7.06247 9.88879 5.85379C11.6977 4.64512 13.8244 4 16 4C18.1756 4 20.3023 4.64512 22.1112 5.85379C23.9201 7.06247 25.33 8.7804 26.1626 10.7904C26.9952 12.8003 27.2131 15.012 26.7887 17.1458C26.3643 19.2796 25.3167 21.2396 23.7784 22.778Z" stroke="black" stroke-width="2" stroke-linecap="round" stroke-linejoin="round"/>
</svg>
