<svg width="50" height="50" viewBox="0 0 50 50" fill="none" xmlns="http://www.w3.org/2000/svg">
<path d="M15 32.5H37.5C38.875 32.5 40 33.625 40 35C40 36.375 38.875 37.5 37.5 37.5H12.5C11.125 37.5 10 36.375 10 35V10H5C3.625 10 2.5 8.875 2.5 7.5C2.5 6.125 3.625 5 5 5H12.5C13.875 5 15 6.125 15 7.5V12.5H47.5L37.5 30H15V32.5ZM13.75 40C15.825 40 17.5 41.675 17.5 43.75C17.5 45.825 15.825 47.5 13.75 47.5C11.675 47.5 10 45.825 10 43.75C10 41.675 11.675 40 13.75 40ZM36.25 40C38.325 40 40 41.675 40 43.75C40 45.825 38.325 47.5 36.25 47.5C34.175 47.5 32.5 45.825 32.5 43.75C32.5 41.675 34.175 40 36.25 40Z" fill="#003DA5"/>
</svg>
