<svg width="41" height="41" viewBox="0 0 41 41" fill="none" xmlns="http://www.w3.org/2000/svg">
<path d="M33.2101 22.2082C32.8343 22.2082 32.4414 22.0887 32.0655 22.0032C31.3044 21.8355 30.5565 21.6129 29.8276 21.337C29.0351 21.0487 28.1639 21.0637 27.3818 21.379C26.5997 21.6944 25.9618 22.2879 25.5909 23.0453L25.2151 23.8141C23.5512 22.8885 22.0222 21.7389 20.6709 20.3974C19.3295 19.0462 18.1799 17.5172 17.2543 15.8532L17.9718 15.3749C18.7292 15.0041 19.3227 14.3662 19.6381 13.5841C19.9535 12.8019 19.9684 11.9308 19.6801 11.1382C19.4089 10.4078 19.1863 9.6602 19.0139 8.90033C18.9284 8.5245 18.8601 8.13158 18.8089 7.73867C18.6014 6.53535 17.9711 5.44564 17.0315 4.66578C16.092 3.88593 14.9048 3.46717 13.6839 3.48492H8.55886C7.82262 3.478 7.09354 3.62981 6.42124 3.92999C5.74894 4.23017 5.14922 4.67169 4.66289 5.22448C4.17656 5.77727 3.81505 6.42836 3.60297 7.13343C3.39088 7.83849 3.33321 8.58098 3.43386 9.31033C4.34396 16.4672 7.61249 23.1169 12.7232 28.209C17.8339 33.3011 24.4954 36.5454 31.6555 37.4295H32.3047C33.5644 37.4313 34.7807 36.9692 35.7214 36.1312C36.2618 35.6478 36.6935 35.0552 36.988 34.3926C37.2825 33.73 37.4331 33.0125 37.4297 32.2874V27.1624C37.4088 25.9758 36.9767 24.8332 36.2071 23.9297C35.4376 23.0262 34.3783 22.4177 33.2101 22.2082ZM34.0643 32.4582C34.064 32.7008 34.012 32.9405 33.9119 33.1614C33.8117 33.3824 33.6657 33.5794 33.4834 33.7395C33.2931 33.9052 33.07 34.0289 32.8286 34.1025C32.5872 34.1761 32.333 34.1979 32.0826 34.1666C25.6847 33.3462 19.742 30.4193 15.1918 25.8475C10.6417 21.2757 7.74298 15.3191 6.95303 8.91742C6.92584 8.66718 6.94967 8.41402 7.02307 8.17325C7.09648 7.93248 7.21794 7.70909 7.38011 7.51658C7.5402 7.33436 7.73726 7.18831 7.95817 7.08816C8.17909 6.98801 8.4188 6.93606 8.66136 6.93575H13.7864C14.1836 6.92691 14.5716 7.05684 14.8834 7.30316C15.1952 7.54949 15.4113 7.89681 15.4947 8.28533C15.563 8.75228 15.6484 9.21353 15.7509 9.66908C15.9483 10.5696 16.2109 11.4546 16.5368 12.317L14.1451 13.4274C13.9406 13.5212 13.7567 13.6545 13.6038 13.8196C13.451 13.9848 13.3323 14.1784 13.2545 14.3895C13.1767 14.6007 13.1414 14.8251 13.1506 15.0499C13.1598 15.2747 13.2133 15.4954 13.308 15.6995C15.7667 20.9659 20 25.1992 25.2664 27.6578C25.6823 27.8287 26.1488 27.8287 26.5647 27.6578C26.7777 27.5816 26.9735 27.4639 27.1407 27.3114C27.3079 27.1589 27.4431 26.9747 27.5384 26.7695L28.5976 24.3778C29.4808 24.6937 30.3821 24.9561 31.2968 25.1637C31.7523 25.2662 32.2136 25.3516 32.6805 25.4199C33.0691 25.5033 33.4164 25.7194 33.6627 26.0313C33.909 26.3431 34.0389 26.731 34.0301 27.1282L34.0643 32.4582Z" fill="#003DA5"/>
</svg>
