<svg width="169" height="86" viewBox="0 0 169 86" fill="none" xmlns="http://www.w3.org/2000/svg">
<path fill-rule="evenodd" clip-rule="evenodd" d="M49.2857 74.8519V11.1481C49.2857 7.62989 46.4715 4.77778 43 4.77778C39.5285 4.77778 36.7143 7.62989 36.7143 11.1481V74.8519C36.7143 78.3701 39.5285 81.2222 43 81.2222C46.4715 81.2222 49.2857 78.3701 49.2857 74.8519ZM43 0C36.9249 0 32 4.99119 32 11.1481V74.8519C32 81.0088 36.9249 86 43 86C49.0751 86 54 81.0088 54 74.8519V11.1481C54 4.9912 49.0751 0 43 0Z" fill="#003DA5"/>
<path fill-rule="evenodd" clip-rule="evenodd" d="M32.2857 58.8823V27.1176C32.2857 23.609 29.4715 20.7647 26 20.7647C22.5285 20.7647 19.7143 23.609 19.7143 27.1176V58.8824C19.7143 62.391 22.5285 65.2353 26 65.2353C29.4715 65.2353 32.2857 62.391 32.2857 58.8823ZM26 16C19.9249 16 15 20.9775 15 27.1176V58.8824C15 65.0225 19.9249 70 26 70C32.0751 70 37 65.0225 37 58.8823V27.1176C37 20.9775 32.0751 16 26 16Z" fill="#003DA5"/>
<path fill-rule="evenodd" clip-rule="evenodd" d="M119.714 74.8519V11.1481C119.714 7.62989 122.528 4.77778 126 4.77778C129.472 4.77778 132.286 7.62989 132.286 11.1481V74.8519C132.286 78.3701 129.472 81.2222 126 81.2222C122.528 81.2222 119.714 78.3701 119.714 74.8519ZM126 0C132.075 0 137 4.99119 137 11.1481V74.8519C137 81.0088 132.075 86 126 86C119.925 86 115 81.0088 115 74.8519V11.1481C115 4.9912 119.925 0 126 0Z" fill="#003DA5"/>
<path d="M51 35L51 51L115 51L115 35L51 35Z" fill="#003DA5"/>
<path fill-rule="evenodd" clip-rule="evenodd" d="M55.8 46.2L55.8 39.8L110.2 39.8L110.2 46.2L55.8 46.2ZM51 35L115 35L115 51L51 51L51 35Z" fill="#003DA5"/>
<path fill-rule="evenodd" clip-rule="evenodd" d="M136.929 58.8823V27.1176C136.929 23.609 139.871 20.7647 143.5 20.7647C147.129 20.7647 150.071 23.609 150.071 27.1176V58.8824C150.071 62.391 147.129 65.2353 143.5 65.2353C139.871 65.2353 136.929 62.391 136.929 58.8823ZM143.5 16C149.851 16 155 20.9775 155 27.1176V58.8824C155 65.0225 149.851 70 143.5 70C137.149 70 132 65.0225 132 58.8823V27.1176C132 20.9775 137.149 16 143.5 16Z" fill="#003DA5"/>
<path d="M0 43C0 38.5817 3.58172 35 8 35H16V51H8C3.58172 51 0 47.4183 0 43V43Z" fill="#003DA5"/>
<path d="M169 43C169 38.5817 165.418 35 161 35H153V51H161C165.418 51 169 47.4183 169 43V43Z" fill="#003DA5"/>
</svg>
