<svg width="46" height="46" viewBox="0 0 46 46" fill="none" xmlns="http://www.w3.org/2000/svg">
<g clip-path="url(#clip0_494_141)">
<path d="M13.417 13.0332C13.417 11.657 12.1299 10.5415 10.542 10.5415C8.95403 10.5415 7.66699 11.657 7.66699 13.0332V32.9665C7.66699 34.3427 8.95403 35.4582 10.542 35.4582C12.1299 35.4582 13.417 34.3427 13.417 32.9665V13.0332ZM38.3337 13.0332C38.3337 11.657 37.0466 10.5415 35.4587 10.5415C33.8707 10.5415 32.5837 11.657 32.5837 13.0332V32.9665C32.5837 34.3427 33.8707 35.4582 35.4587 35.4582C37.0466 35.4582 38.3337 34.3427 38.3337 32.9665V13.0332ZM7.66699 17.889C7.66699 16.4774 6.37995 15.3332 4.79199 15.3332C3.20403 15.3332 1.91699 16.4774 1.91699 17.889V28.1106C1.91699 29.5223 3.20403 30.6665 4.79199 30.6665C6.37995 30.6665 7.66699 29.5223 7.66699 28.1106V17.889ZM44.0837 17.889C44.0837 16.4774 42.7966 15.3332 41.2087 15.3332C39.6207 15.3332 38.3337 16.4774 38.3337 17.889V28.1106C38.3337 29.5223 39.6207 30.6665 41.2087 30.6665C42.7966 30.6665 44.0837 29.5223 44.0837 28.1106V17.889ZM13.417 25.8748H32.5837V20.1248H13.417V25.8748Z" stroke="#003DA5" stroke-width="4" stroke-linejoin="round"/>
</g>
<defs>
<clipPath id="clip0_494_141">
<rect width="46" height="46" fill="white"/>
</clipPath>
</defs>
</svg>
