<svg width="97" height="110" viewBox="0 0 97 110" fill="none" xmlns="http://www.w3.org/2000/svg">
<path d="M26 89.3043L97 76V78.9565L26 110V89.3043Z" fill="#FFB81C"/>
<path d="M0 13.4308L97 0V76.1077L0 97V13.4308Z" fill="#F5F5F5"/>
<path d="M31.5854 72C27.484 72 24.294 71.3108 22.0154 69.9325C19.7369 68.5542 18.1646 66.5912 17.2988 64.0434C16.4329 61.4956 16 58.4466 16 54.8964V20.5639H25.8434V55.9614C25.8434 57.5486 25.9574 59.0522 26.1852 60.4723C26.4131 61.8506 26.9371 62.9783 27.7574 63.8554C28.6233 64.6908 29.8993 65.1084 31.5854 65.1084C33.3627 65.1084 34.6387 64.6908 35.4134 63.8554C36.2337 62.9783 36.7578 61.8506 36.9856 60.4723C37.2591 59.0522 37.3958 57.5486 37.3958 55.9614V20.5639H47.1708V54.8964C47.1708 58.4466 46.7379 61.4956 45.8721 64.0434C45.0062 66.5912 43.434 68.5542 41.1554 69.9325C38.9224 71.3108 35.7324 72 31.5854 72ZM70.0298 72C65.9739 72 62.7839 71.2691 60.4598 69.8072C58.1812 68.3454 56.5862 66.3614 55.6748 63.8554C54.7634 61.3076 54.3077 58.3839 54.3077 55.0843V36.9783C54.3077 33.5116 54.7634 30.5044 55.6748 27.9566C56.5862 25.4088 58.1812 23.4458 60.4598 22.0675C62.7839 20.6892 65.9739 20 70.0298 20C73.8578 20 76.8427 20.6056 78.9846 21.8169C81.172 22.9863 82.7214 24.6779 83.6329 26.8916C84.5443 29.1052 85 31.6739 85 34.5976V38.8578H75.2933V34.4723C75.2933 33.0522 75.2021 31.7574 75.0199 30.588C74.8831 29.4185 74.4502 28.4996 73.7211 27.8313C73.0375 27.1213 71.8299 26.7663 70.0981 26.7663C68.3664 26.7663 67.0904 27.1422 66.2701 27.894C65.4954 28.604 64.9941 29.5855 64.7663 30.8386C64.5384 32.0498 64.4245 33.4281 64.4245 34.9735V57.0265C64.4245 58.8643 64.584 60.3888 64.903 61.6C65.222 62.7695 65.7916 63.6675 66.6119 64.294C67.4778 64.8787 68.6399 65.1711 70.0981 65.1711C71.7843 65.1711 72.9691 64.8161 73.6527 64.106C74.3819 63.3542 74.8376 62.3727 75.0199 61.1614C75.2021 59.9502 75.2933 58.5928 75.2933 57.0892V52.5157H85V56.588C85 59.5952 84.5671 62.2683 83.7012 64.6072C82.8354 66.9044 81.3087 68.7213 79.1213 70.0578C76.9794 71.3526 73.9489 72 70.0298 72Z" fill="#003DA5"/>
</svg>
