<svg width="327" height="195" viewBox="0 0 327 195" fill="none" xmlns="http://www.w3.org/2000/svg">
<path d="M163.5 179.663C253.799 179.663 327 169.485 327 156.931C327 144.377 253.799 134.199 163.5 134.199C73.2014 134.199 0 144.377 0 156.931C0 169.485 73.2014 179.663 163.5 179.663Z" fill="#003DA5"/>
<path d="M88.1306 158.103C80.0408 158.103 73.7536 156.745 69.269 154.028C64.7844 151.223 61.6189 147.236 59.7723 142.065C58.0136 136.807 57.1343 130.453 57.1343 123.003V50.174H78.6338V126.027C78.6338 128.656 78.8097 131.241 79.1614 133.783C79.6011 136.325 80.4804 138.384 81.7994 139.962C83.2063 141.539 85.3167 142.328 88.1306 142.328C91.0324 142.328 93.1428 141.539 94.4617 139.962C95.8687 138.384 96.748 136.325 97.0997 133.783C97.4515 131.241 97.6273 128.656 97.6273 126.027V50.174H119.127V123.003C119.127 130.453 118.204 136.807 116.357 142.065C114.598 147.236 111.477 151.223 106.992 154.028C102.508 156.745 96.2204 158.103 88.1306 158.103ZM163.989 158.103C156.075 158.103 149.788 156.613 145.128 153.634C140.555 150.654 137.345 146.535 135.499 141.276C133.652 135.93 132.729 129.752 132.729 122.74V84.4852C132.729 77.1234 133.652 70.8133 135.499 65.5549C137.345 60.2088 140.555 56.0897 145.128 53.1976C149.788 50.3054 156.075 48.8594 163.989 48.8594C171.639 48.8594 177.619 50.1302 181.927 52.6717C186.324 55.2133 189.402 58.8066 191.16 63.4515C193.007 68.0965 193.93 73.4863 193.93 79.6212V88.5605H172.826V78.5695C172.826 76.1156 172.694 73.8369 172.431 71.7335C172.167 69.5425 171.419 67.7897 170.188 66.4751C169.045 65.0729 167.023 64.3717 164.121 64.3717C161.219 64.3717 159.109 65.0729 157.79 66.4751C156.471 67.8774 155.635 69.7178 155.284 71.9965C154.932 74.1875 154.756 76.6414 154.756 79.3583V127.736C154.756 130.716 154.976 133.345 155.416 135.623C155.943 137.814 156.867 139.523 158.186 140.75C159.592 141.89 161.571 142.459 164.121 142.459C166.935 142.459 168.913 141.802 170.056 140.487C171.288 139.085 172.035 137.245 172.299 134.966C172.65 132.687 172.826 130.277 172.826 127.736V117.35H193.93V126.158C193.93 132.381 193.051 137.902 191.292 142.722C189.534 147.455 186.5 151.223 182.191 154.028C177.882 156.745 171.815 158.103 163.989 158.103ZM207.217 156.657V50.174H234.916C242.126 50.174 248.281 51.0066 253.382 52.6717C258.57 54.2493 262.527 57.0976 265.252 61.2167C268.066 65.3358 269.473 71.0324 269.473 78.3066C269.473 82.6886 269.078 86.5886 268.286 90.0066C267.583 93.3369 266.264 96.2729 264.329 98.8144C262.483 101.268 259.845 103.24 256.415 104.73L271.188 156.657H248.897L236.63 108.411H228.98V156.657H207.217ZM228.98 95.5279H235.311C238.829 95.5279 241.599 94.9583 243.621 93.8189C245.643 92.6796 247.05 90.9706 247.842 88.692C248.721 86.3257 249.161 83.4335 249.161 80.0156C249.161 75.1077 248.237 71.383 246.391 68.8414C244.632 66.2122 241.291 64.8976 236.367 64.8976H228.98V95.5279Z" fill="#5A8BDF"/>
<path d="M77.1391 158.103C69.0493 158.103 62.7621 156.745 58.2775 154.028C53.793 151.223 50.6274 147.236 48.7808 142.065C47.0222 136.807 46.1428 130.453 46.1428 123.003V50.174H67.6424V126.027C67.6424 128.656 67.8183 131.241 68.17 133.783C68.6096 136.325 69.489 138.384 70.808 139.962C72.2149 141.539 74.3253 142.328 77.1391 142.328C80.0409 142.328 82.1513 141.539 83.4703 139.962C84.8772 138.384 85.7565 136.325 86.1083 133.783C86.46 131.241 86.6359 128.656 86.6359 126.027V50.174H108.135V123.003C108.135 130.453 107.212 136.807 105.366 142.065C103.607 147.236 100.485 151.223 96.0007 154.028C91.5161 156.745 85.2289 158.103 77.1391 158.103ZM152.998 158.103C145.084 158.103 138.797 156.613 134.136 153.634C129.564 150.654 126.354 146.535 124.507 141.276C122.661 135.93 121.738 129.752 121.738 122.74V84.4852C121.738 77.1234 122.661 70.8133 124.507 65.5549C126.354 60.2088 129.564 56.0897 134.136 53.1976C138.797 50.3054 145.084 48.8594 152.998 48.8594C160.648 48.8594 166.627 50.1302 170.936 52.6717C175.333 55.2133 178.41 58.8066 180.169 63.4515C182.015 68.0965 182.939 73.4863 182.939 79.6212V88.5605H161.835V78.5695C161.835 76.1156 161.703 73.8369 161.439 71.7335C161.175 69.5425 160.428 67.7897 159.197 66.4751C158.054 65.0729 156.031 64.3717 153.13 64.3717C150.228 64.3717 148.117 65.0729 146.798 66.4751C145.479 67.8774 144.644 69.7178 144.292 71.9965C143.941 74.1875 143.765 76.6414 143.765 79.3583V127.736C143.765 130.716 143.985 133.345 144.424 135.623C144.952 137.814 145.875 139.523 147.194 140.75C148.601 141.89 150.579 142.459 153.13 142.459C155.943 142.459 157.922 141.802 159.065 140.487C160.296 139.085 161.043 137.245 161.307 134.966C161.659 132.687 161.835 130.277 161.835 127.736V117.35H182.939V126.158C182.939 132.381 182.059 137.902 180.301 142.722C178.542 147.455 175.508 151.223 171.2 154.028C166.891 156.745 160.824 158.103 152.998 158.103ZM196.225 156.657V50.174H223.924C231.135 50.174 237.29 51.0066 242.39 52.6717C247.578 54.2493 251.535 57.0976 254.261 61.2167C257.075 65.3358 258.482 71.0324 258.482 78.3066C258.482 82.6886 258.086 86.5886 257.295 90.0066C256.591 93.3369 255.272 96.2729 253.338 98.8144C251.491 101.268 248.853 103.24 245.424 104.73L260.197 156.657H237.906L225.639 108.411H217.989V156.657H196.225ZM217.989 95.5279H224.32C227.837 95.5279 230.607 94.9583 232.63 93.8189C234.652 92.6796 236.059 90.9706 236.85 88.692C237.73 86.3257 238.169 83.4335 238.169 80.0156C238.169 75.1077 237.246 71.383 235.399 68.8414C233.641 66.2122 230.299 64.8976 225.375 64.8976H217.989V95.5279Z" fill="#9BC0FF"/>
<path d="M240.716 62.4438H215.435V97.5H240.716V62.4438Z" fill="#9BC0FF"/>
<path opacity="0.5" d="M219.665 68.2157L229.251 57.0585L224.74 70.8767L240.53 62.7612L228.687 74.9098L247.861 73.9178L230.379 80.3643L245.605 86.5627L229.251 85.5707L239.684 96.4797L225.304 89.5375L229.251 102.43L220.511 93.7525L215.435 102.43V69.951V55.3232L219.665 68.2157Z" fill="#DEE7F5"/>
</svg>
