<svg width="117" height="132" viewBox="0 0 117 132" fill="none" xmlns="http://www.w3.org/2000/svg">
<path d="M20.5 105.5L116.5 83.5V89L20.5 132V105.5Z" fill="#FFB81C"/>
<path d="M0 26L117 0.5V86L0 111.5V26Z" fill="#F5F5F5"/>
<path d="M25.414 80.638C21.934 80.638 19.2273 80 17.294 78.724C15.3607 77.448 14.0267 75.6307 13.292 73.272C12.5573 70.9133 12.19 68.0907 12.19 64.804V33.02H20.542V65.79C20.542 67.2593 20.6387 68.6513 20.832 69.966C21.0253 71.242 21.47 72.286 22.166 73.098C22.9007 73.8713 23.9833 74.258 25.414 74.258C26.922 74.258 28.0047 73.8713 28.662 73.098C29.358 72.286 29.8027 71.242 29.996 69.966C30.228 68.6513 30.344 67.2593 30.344 65.79V33.02H38.638V64.804C38.638 68.0907 38.2707 70.9133 37.536 73.272C36.8013 75.6307 35.4673 77.448 33.534 78.724C31.6393 80 28.9327 80.638 25.414 80.638ZM58.0336 80.638C54.5922 80.638 51.8856 79.9613 49.9136 78.608C47.9802 77.2547 46.6269 75.418 45.8536 73.098C45.0802 70.7393 44.6936 68.0327 44.6936 64.978V48.216C44.6936 45.0067 45.0802 42.2227 45.8536 39.864C46.6269 37.5053 47.9802 35.688 49.9136 34.412C51.8856 33.136 54.5922 32.498 58.0336 32.498C61.2816 32.498 63.8142 33.0587 65.6316 34.18C67.4876 35.2627 68.8022 36.8287 69.5756 38.878C70.3489 40.9273 70.7356 43.3053 70.7356 46.012V49.956H62.4996V45.896C62.4996 44.5813 62.4222 43.3827 62.2676 42.3C62.1516 41.2173 61.7842 40.3667 61.1656 39.748C60.5856 39.0907 59.5609 38.762 58.0916 38.762C56.6222 38.762 55.5396 39.11 54.8436 39.806C54.1862 40.4633 53.7609 41.372 53.5676 42.532C53.3742 43.6533 53.2776 44.9293 53.2776 46.36V66.776C53.2776 68.4773 53.4129 69.8887 53.6836 71.01C53.9542 72.0927 54.4376 72.924 55.1336 73.504C55.8682 74.0453 56.8542 74.316 58.0916 74.316C59.5222 74.316 60.5276 73.9873 61.1076 73.33C61.7262 72.634 62.1129 71.7253 62.2676 70.604C62.4222 69.4827 62.4996 68.226 62.4996 66.834V62.6H70.7356V66.37C70.7356 69.154 70.3682 71.6287 69.6336 73.794C68.8989 75.9207 67.6036 77.6027 65.7476 78.84C63.9302 80.0387 61.3589 80.638 58.0336 80.638ZM76.7118 80V33.02H87.9638C91.1345 33.02 93.8025 33.4067 95.9678 34.18C98.1718 34.9147 99.8345 36.1907 100.956 38.008C102.116 39.8253 102.696 42.3 102.696 45.432C102.696 47.3267 102.522 49.028 102.174 50.536C101.826 52.044 101.226 53.3393 100.376 54.422C99.5638 55.466 98.4232 56.278 96.9538 56.858L103.508 80H94.9238L89.2398 58.482H85.2958V80H76.7118ZM85.2958 53.088H87.9638C89.6265 53.088 90.9412 52.856 91.9078 52.392C92.9132 51.8893 93.6285 51.116 94.0538 50.072C94.4792 48.9893 94.6918 47.6167 94.6918 45.954C94.6918 43.5953 94.2472 41.836 93.3578 40.676C92.5072 39.4773 90.8638 38.878 88.4278 38.878H85.2958V53.088Z" fill="#003DA5"/>
</svg>
